<?xml version="1.0" encoding="UTF-8"?>
<svg width="752pt" height="752pt" version="1.1" viewBox="0 0 752 752" xmlns="http://www.w3.org/2000/svg">
 <g>
  <rect width="752" height="752" fill="#fff"/>
  <path d="m505.76 427.04c-16.465 9.2852-35.461 14.582-55.684 14.582-6.9961 0-13.828-0.64063-20.469-1.8516v0.57422h-7.0547v-2.0938c-1.6289-0.40625-3.25-0.85156-4.8555-1.3242v3.4258h-7.0469v-5.7812c-1.6484-0.60547-3.2617-1.2461-4.8633-1.9258v7.7109h-7.0469v-10.988c-1.6367-0.83203-3.2617-1.7031-4.8555-2.625v13.609h-7.0469v-17.992c-1.668-1.0977-3.2812-2.25-4.8633-3.4375v21.426h-7.0508v-27.176c-1.6719-1.4688-3.2852-2.9844-4.8555-4.543v31.715h-7.0469v-34.484h4.3477c-10.727-11.359-19.148-24.938-24.484-39.957-12.051 0.1875-24.105 0.36328-36.164 0.55859-4.4141 0.066407-8.8164 0.12891-13.242 0.1875-12.938 0.19922-25.887 0.38672-38.828 0.56641-7.5352 0.10547-9.7422-2.8828-7.2109-9.9531 5.1758-14.477 10.488-20.559 15.812-34.973 0.22266-0.62109 0.47656-1.2188 0.75-1.8242 0.6875-1.5 1.4727-2.9648 2.2266-4.4414 1.1016-2.168 2.3594-4.0078 3.8633-5.5156 0.019531-0.027344 0.050781-0.058594 0.070312-0.085937 0.050782-0.039063 0.097657-0.085938 0.14844-0.12891 2.5352-2.4609 5.7812-3.9883 10.25-4.4844 10.406-1.168 20.812-2.2344 31.223-3.0586 9.2188-0.72266 18.449-1.2656 27.715-1.5 0.6875-2.8594 1.4805-5.6875 2.3867-8.457-22.473 0.625-44.828 3.1133-67.184 5.75-7.4297 0.875-12.137 4.3438-15.461 10.539-1.0938 2.043-2.3672 4.0156-3.1836 6.1602-6.4141 16.969-12.828 25.602-19.016 42.66-1.0742 2.9414-2.4141 3.8047-5.1523 2.9062-0.10938-0.37109-0.23047-0.57813-0.23828-0.79688-0.039063-2.5508-0.058594-5.0977-0.082032-7.6406-0.039062-4.8789-1.5391-6.4805-6.4023-6.5352-5.793-0.070312-11.578-0.039062-17.371-0.007812-5.2812 0.007812-8.3164 2.2695-9.3711 6.918-1.4922 6.6719 0.20312 11.633 4.8828 13.723 3.7188 1.6719 7.5391 3.1211 11.445 4.7266-13.359 9.6641-16.262 15.418-16.262 31.996 0 22.473 0.015624 44.938-0.003907 67.41-0.003906 4.8867 1.3984 9.293 3.9531 13.449 0.84766 1.3633 1.4023 3.1523 1.4297 4.7539 0.12891 9.1484-0.019532 18.301 0.085937 27.453 0.089844 6.6211 5.0664 11.645 11.641 11.797 5.2188 0.11328 19.773 0.14062 24.977-0.019531 4.8242-0.14844 8.4492-2.5938 10.285-7.0078 0.94531-2.2773 1.2695-4.9297 1.3203-7.4258 0.17187-6.9102 0.0625-13.832 0.0625-20.898h199.27c0 7.5664-0.046875 14.945 0.019531 22.336 0.066406 8.0508 5.0234 13 12.977 13.043 4.4062 0.03125 17.836 0.039063 22.234 0 7.7617-0.0625 12.703-5.0312 12.742-12.891 0.039063-8.6836-0.046875-17.371 0.058594-26.051 0.019531-1.2695 0.45312-2.7461 1.1953-3.75 3.4531-4.6406 5.0391-9.7891 5.0234-15.547-0.023437-14.273-0.003906-28.535-0.003906-42.805zm-155.19-21.18h7.0547v34.484h-7.0547zm-12.426 0h7.0469v34.484h-7.0469zm-12.438 0h7.0547v34.484h-7.0547zm-12.422 0h7.043v34.484h-7.043zm-12.43 0h7.0469v34.484h-7.0469zm-12.441 0h7.0547v34.484h-7.0547zm-12.422 0h7.0469v34.484h-7.0469zm-35.906 70.52c-4.4297-0.042969-8.1445-3.7188-8.2773-8.2031-0.13672-4.5 3.7188-8.4023 8.3438-8.4336 4.75-0.027343 8.3555 3.5625 8.3398 8.3125-0.019532 4.6758-3.7539 8.3789-8.4062 8.3242zm26.648-1.4961c-1.3789 0.96094-3.0469 1.5195-4.8633 1.5-0.55859-0.003906-1.0977-0.066406-1.6289-0.17578-2.8906-0.63281-5.2773-2.8086-6.2188-5.6172-0.25391-0.76172-0.40625-1.5781-0.44141-2.4219-0.066407-2.3164 0.92187-4.4766 2.5391-6.0273 1.5156-1.457 3.5664-2.3867 5.8047-2.3945 4.7578-0.039063 8.3633 3.5547 8.3398 8.3008-0.007812 2.8555-1.4023 5.3398-3.5312 6.8359zm0-42.625c-7.2891-0.066406-14.578-0.023437-21.875-0.023437-7.0547 0-14.117-0.066407-21.18 0.039062-3.0391 0.042969-4.4844-0.69922-4.3945-3.2773 0.19531-6.0234 0.007813-12.051 0.29297-18.062 0.18359-3.8867 2.2109-5.1445 7.0625-5.0625 11.344 0.20312 22.664 0.40234 34 0.64844 1.6055 0.03125 3.2578 0.17578 4.793 0.50781 3.1406 0.68359 4.8359 2.3125 4.8164 4.9883-0.042968 5.8477-0.085937 11.699 0.019532 17.543 0.039062 2.0391-1.0586 2.7227-3.5352 2.6992zm162.86 41.898h-153.62v-1.3906h153.62zm0-2.707h-153.62v-1.3906h153.62zm0.007813-2.6836h-153.62v-1.3906h153.62zm0-2.6992h-153.61v-1.3867h153.61zm13.527 10.312c-4.5898-0.019531-8.2773-3.7539-8.2695-8.3867 0-1.7617 0.49609-3.3633 1.3867-4.668 1.4805-2.2031 3.9961-3.5898 6.9492-3.582 1.25 0.007813 2.4141 0.27344 3.4648 0.73828 2.8828 1.293 4.8359 4.1562 4.832 7.5781-0.019531 4.5781-3.793 8.3359-8.3633 8.3203zm22.059 0.007812c-4.5781-0.019531-8.2695-3.7617-8.2695-8.3867 0-4.6836 3.6172-8.2734 8.3359-8.2461 4.6875 0.007812 8.3164 3.6484 8.3047 8.3047-0.015625 4.5781-3.793 8.3398-8.3711 8.3281z" fill-rule="evenodd"/>
  <path d="m450.08 223.85c-45 0-83.418 28.715-97.875 68.793-1.0039 2.7656-1.8867 5.5938-2.6484 8.4688-2.2773 8.5352-3.4922 17.512-3.4922 26.754 0 13.379 2.5352 26.164 7.1641 37.934 6.0898 15.504 15.805 29.207 28.098 40.055 0.20312 0.18359 0.41797 0.37891 0.64062 0.5625 1.582 1.3672 3.2031 2.6914 4.8633 3.9727 2.2734 1.7461 4.625 3.4102 7.0469 4.9688 1.5898 1.0273 3.2109 2.0078 4.8555 2.9492 2.293 1.3008 4.6406 2.5273 7.0469 3.6641 1.6016 0.75 3.2188 1.4727 4.8633 2.1367 2.3008 0.95703 4.6602 1.8281 7.0469 2.6094 1.6016 0.53125 3.2188 1.0234 4.8555 1.4688 2.3125 0.64062 4.668 1.1953 7.0547 1.668 2.8125 0.57422 5.6797 1.0273 8.5859 1.3594 3.9023 0.44531 7.8633 0.67187 11.887 0.67187 13.617 0 26.621-2.625 38.543-7.4023 6.0156-2.3945 11.73-5.3516 17.129-8.7812 29.043-18.473 48.348-50.949 48.348-87.84 0.007812-57.34-46.656-104.01-104.01-104.01zm15.133 169.04h-35.488v-31.309h35.488zm28.961-79.188c-2.7383 4.5938-8.3164 10.207-16.75 16.836-5.8633 4.6445-9.5703 8.3828-11.121 11.203-1.5352 2.8164-2.3125 6.4922-2.3125 11.023h-33.141v-3.3047c0-5.6367 0.64063-10.219 1.9141-13.738 1.2852-3.5156 3.1914-6.7305 5.7148-9.6328 2.5352-2.9023 8.2109-8.0234 17.059-15.348 4.707-3.8398 7.0547-7.3555 7.0547-10.555 0-3.1953-0.94141-5.6797-2.832-7.4531-1.8867-1.7695-4.7539-2.6602-8.5898-2.6602-4.125 0-7.5391 1.3672-10.25 4.1016-2.6992 2.7266-4.4336 7.4961-5.1914 14.301l-33.836-4.1875c1.1562-12.441 5.6797-22.457 13.559-30.043 7.8789-7.5977 19.961-11.379 36.238-11.379 12.672 0 22.91 2.6484 30.699 7.9375 10.578 7.1523 15.875 16.684 15.875 28.605 0.003906 4.9336-1.3633 9.6992-4.0898 14.293z" fill-rule="evenodd"/>
 </g>
</svg>
